<svg width="25" height="24" viewBox="0 0 25 24" fill="none" xmlns="http://www.w3.org/2000/svg">
<path d="M15.9504 15.3487C16.4744 15.5233 17.0407 15.2402 17.2153 14.7162C17.39 14.1923 17.1068 13.626 16.5829 13.4513L15.9504 15.3487ZM12.6666 13.2H11.6666C11.6666 13.6304 11.9421 14.0126 12.3504 14.1487L12.6666 13.2ZM13.6666 8.18225C13.6666 7.62997 13.2189 7.18225 12.6666 7.18225C12.1144 7.18225 11.6666 7.62997 11.6666 8.18225H13.6666ZM16.5829 13.4513L12.9829 12.2513L12.3504 14.1487L15.9504 15.3487L16.5829 13.4513ZM13.6666 13.2V8.18225H11.6666V13.2H13.6666ZM21.2666 12C21.2666 16.7496 17.4163 20.6 12.6666 20.6V22.6C18.5209 22.6 23.2666 17.8542 23.2666 12H21.2666ZM12.6666 20.6C7.917 20.6 4.06665 16.7496 4.06665 12H2.06665C2.06665 17.8542 6.81243 22.6 12.6666 22.6V20.6ZM4.06665 12C4.06665 7.25034 7.917 3.39999 12.6666 3.39999V1.39999C6.81243 1.39999 2.06665 6.14577 2.06665 12H4.06665ZM12.6666 3.39999C17.4163 3.39999 21.2666 7.25034 21.2666 12H23.2666C23.2666 6.14577 18.5209 1.39999 12.6666 1.39999V3.39999Z" fill="#D2D1D5"/>
</svg>
