<svg width="24" height="24" viewBox="0 0 24 24" fill="none" xmlns="http://www.w3.org/2000/svg">
<path d="M12 16.7999V16.8421M9.60107 9.04526C9.60107 7.69474 10.6756 6.59993 12.0011 6.59993C13.3265 6.59993 14.4011 7.69474 14.4011 9.04526C14.4011 10.3958 13.3265 11.4906 12.0011 11.4906C12.0011 11.4906 12 12.2205 12 13.1208M21.6 5.99993L21.6 18C21.6 19.9883 19.9882 21.6 18 21.6H6.00002C4.0118 21.6 2.40002 19.9883 2.40002 18V5.99993C2.40002 4.01171 4.0118 2.39993 6.00002 2.39993H18C19.9882 2.39993 21.6 4.01171 21.6 5.99993Z" stroke="#D2D1D5" stroke-width="2" stroke-linecap="round" stroke-linejoin="round"/>
</svg>
