<svg width="24" height="24" viewBox="0 0 24 24" fill="none" xmlns="http://www.w3.org/2000/svg">
<g id="phone">
<path id="Vector" d="M20.6638 18.771C20.6638 18.771 19.5052 19.909 19.2212 20.2426C18.7587 20.7362 18.2137 20.9693 17.4992 20.9693C17.4305 20.9693 17.3573 20.9693 17.2886 20.9647C15.9284 20.8779 14.6644 20.3477 13.7164 19.8953C11.1243 18.643 8.84819 16.8651 6.95678 14.6119C5.3951 12.7335 4.35093 10.9968 3.6594 9.13211C3.23349 7.99409 3.07778 7.10744 3.14647 6.27107C3.19227 5.73634 3.39835 5.29302 3.77847 4.91368L5.34015 3.35519C5.56455 3.14496 5.8027 3.0307 6.03626 3.0307C6.32478 3.0307 6.55835 3.20437 6.7049 3.35062C6.70948 3.35519 6.71406 3.35977 6.71864 3.36434C6.998 3.62485 7.26362 3.8945 7.54298 4.18243C7.68495 4.32868 7.8315 4.47493 7.97805 4.62575L9.22831 5.87345C9.71376 6.35791 9.71376 6.8058 9.22831 7.29026C9.0955 7.4228 8.96727 7.55534 8.83446 7.68331C8.44976 8.07636 8.75196 7.77477 8.35353 8.13126C8.34437 8.1404 8.33521 8.14497 8.33063 8.15411C7.93677 8.54716 8.01005 8.93107 8.09248 9.19158C8.09706 9.20529 8.10164 9.219 8.10622 9.23271C8.43138 10.0188 8.88935 10.7592 9.58547 11.6413L9.59005 11.6459C10.854 13.1998 12.1867 14.4109 13.6568 15.3387C13.8446 15.4575 14.0369 15.5535 14.2201 15.6449C14.385 15.7272 14.5407 15.8049 14.6735 15.8871C14.6918 15.8963 14.7101 15.91 14.7285 15.9191C14.8842 15.9968 15.0307 16.0334 15.1819 16.0334C15.562 16.0334 15.8001 15.7957 15.878 15.718L16.7757 14.8222C16.9314 14.6668 17.1787 14.4794 17.4672 14.4794C17.7511 14.4794 17.9847 14.6576 18.1267 14.813C18.1312 14.8176 18.1312 14.8176 18.1358 14.8222L20.6592 17.3404C21.1309 17.8066 20.6638 18.771 20.6638 18.771Z" stroke="#1F1F1F" stroke-width="2" stroke-linecap="round" stroke-linejoin="round"/>
</g>
</svg>
